<?xml version="1.0" encoding="utf-8"?>
<!-- Generator: Adobe Illustrator 25.0.0, SVG Export Plug-In . SVG Version: 6.00 Build 0)  -->
<svg version="1.1" id="logo" xmlns="http://www.w3.org/2000/svg" xmlns:xlink="http://www.w3.org/1999/xlink" x="0px"
     y="0px"
     viewBox="0 0 257.5 37.2" style="enable-background:new 0 0 257.5 37.2;" xml:space="preserve">
<g>
		<path d="M32.5,37.2v-0.8c1.2-0.8,2.2-1.8,2.9-3c1-1.9,1.5-4.1,1.5-6.4c-0.2-1.6-0.8-3-1.7-4.3l-0.5-0.2l-3.1-2.4
			c-2-0.9-4.2-1.4-6.6-1.5L19.6,20c-0.2,2.5-0.5,5-0.7,7.4c-0.3,2.4-1,4.7-2.1,6.9l-0.5,0.2l-0.8,1.2c-1.2,0.8-2.6,1.2-4.1,1.2
			s-3,0-4.5,0c-1.3-0.1-2.6-0.6-3.7-1.4l-0.7-0.7c-0.6-1-0.8-2.1-0.8-3.4c0.3-1.7,1-3.3,2-4.7L6.1,24h0.4l0.3-0.5
			c1.3-1,2.5-1.9,3.8-2.5c1.3-0.7,2.6-1.3,4-1.8l0.3-5.4l-0.2-2.4h-0.8c-2.3,0.6-4.5,1-6.8,1.3C4.8,12.9,2.5,13,0,12.9V12
			c2.5-0.2,4.9-0.6,7.3-1.1c2.4-0.5,4.9-1,7.4-1.5V8l-0.5-8h4.6l0.7,9h5.1v0.8l-5.1,0.5v7.6h0.7l1.7-0.3h7.6
			c1.9,0.2,3.8,0.6,5.5,1.3s3.3,1.6,4.7,3c1.6,1.9,2.2,4.2,2,6.8c-0.2,2.4-0.9,4.6-2.2,6.6c-0.6,0.9-1.4,1.6-2.4,2H32.5z M10.8,34.7
			l1.9-2.4c0.7-1.6,1.1-3.2,1.3-4.8c0.2-1.6,0.4-3.3,0.5-5.1h-0.4l-3.2,2l-0.2,0.5c-1.6,1.2-2.9,2.8-3.9,4.6L6.3,32
			C6.5,33,7,33.9,8,34.7l1.5,0.7L10.8,34.7z M33.3,12.6c-0.7-0.4-1.2-0.9-1.5-1.5l-0.2-5.6l0.5-3.4h4.5v1.7L36.2,9l0.7,1.9l0.8,0.2
			c1.3-0.7,2.8-1.2,4.3-1.5c1.5-0.4,3.1-0.4,4.8-0.2v0.8c-2,0.9-4.2,1.5-6.4,2C38.2,12.6,35.8,12.8,33.3,12.6z"/>
    <path d="M60.1,36.1v-0.9c0.7-1.5,1.2-3,1.6-4.6c0.4-1.6,0.6-3.4,0.5-5.3l-0.5-1.9h-0.2c-0.2,1.5-0.8,2.9-1.6,4.1l-1.8,1.7
			l-2.7,0.9h-5.3c-0.8-0.2-1.4-0.6-2-1.2c-0.4-0.7-0.6-1.6-0.5-2.8c0.3-1.4,0.9-2.6,1.8-3.6l0.4-0.2l0.1-0.4
			c1.3-1.3,2.7-2.3,4.1-2.9c1.5-0.6,3.1-0.8,4.8-0.6v-3L58.5,12L58,11.9c-2.7,0.6-5.4,1.2-8.1,2s-5.4,1.2-8.3,1.3v-0.7
			c2.8-0.8,5.6-1.5,8.3-2.2s5.6-1.2,8.5-1.7V9.8l-0.8-7h3.1l0.8,7.4h0.8c1.3-0.2,2.6-0.4,3.8-0.6c1.2-0.2,2.5-0.2,3.9-0.1v0.7
			l-8.4,1.1v0.4c0.2,1.2,0.3,2.4,0.3,3.6c0,1.2,0.1,2.4,0.1,3.7c0.7,0.1,1.2,0.5,1.7,1.2l0.1,0.4l0.4,0.3c0.6,1,1,2.2,1.1,3.5
			c0.2,1.3,0.2,2.6,0.1,4c-0.1,1.4-0.4,2.7-0.8,3.9s-0.9,2.5-1.3,3.8H60.1z M55.5,28.1c0.9-0.7,1.6-1.6,2.2-2.8
			c0.7-1.8,1.1-3.8,1.1-5.9h-1.1c-1.7,0.7-3.4,1.8-4.9,3.3L51.3,25l-0.5,2.2l0.6,1.1l1.7,1L55.5,28.1z"/>
    <path d="M86.4,36.1v-0.9c0.7-1.5,1.2-3,1.6-4.6c0.4-1.6,0.6-3.4,0.5-5.3l-0.5-1.9h-0.2c-0.2,1.5-0.8,2.9-1.6,4.1l-1.8,1.7
			l-2.7,0.9h-5.3c-0.8-0.2-1.4-0.6-2-1.2c-0.4-0.7-0.6-1.6-0.5-2.8c0.3-1.4,0.9-2.6,1.8-3.6l0.4-0.2l0.1-0.4
			c1.3-1.3,2.7-2.3,4.1-2.9c1.5-0.6,3.1-0.8,4.8-0.6v-3L84.9,12l-0.6-0.2c-2.7,0.6-5.4,1.2-8.1,2s-5.4,1.2-8.3,1.3v-0.7
			c2.8-0.8,5.6-1.5,8.3-2.2s5.6-1.2,8.5-1.7V9.8l-0.8-7h3.1l0.8,7.4h0.8c1.3-0.2,2.6-0.4,3.8-0.6c1.2-0.2,2.5-0.2,3.9-0.1v0.7
			L88,11.3v0.4c0.2,1.2,0.3,2.4,0.3,3.6c0,1.2,0.1,2.4,0.1,3.7c0.7,0.1,1.2,0.5,1.7,1.2l0.1,0.4l0.4,0.3c0.6,1,1,2.2,1.1,3.5
			c0.2,1.3,0.2,2.6,0.1,4c-0.1,1.4-0.4,2.7-0.8,3.9s-0.9,2.5-1.3,3.8H86.4z M81.8,28.1c0.9-0.7,1.6-1.6,2.2-2.8
			c0.7-1.8,1.1-3.8,1.1-5.9h-1.1c-1.7,0.7-3.4,1.8-4.9,3.3L77.7,25l-0.5,2.2l0.6,1.1l1.7,1L81.8,28.1z"/>
    <path d="M123.8,31.8v-0.6c1.3-1.4,2.2-3,2.8-4.6s0.8-3.4,0.7-5.2c-0.3-1.5-1.1-2.8-2.5-4l-2.9-1.6l-2-0.5c-0.5,2-1.2,4-2.1,5.9
			c-0.9,1.9-2.2,3.7-3.9,5.4l-0.5,0.1l-0.1,0.4c-1.4,0.9-3,1.4-4.9,1.6c-1.9,0.2-3.8,0.2-5.8,0.2c-2.2,0-4.1-0.5-5.7-1.6
			c-1-0.9-1.4-1.9-1.2-3.2c0.4-1.6,1.4-3.1,3-4.3l0.5-0.1l0.1-0.3l1.4-0.9h0.3l0.1-0.4l2.9-1.4v-0.9c-0.3-1.4-0.5-2.9-0.7-4.3
			c-0.1-1.4-0.4-2.8-0.8-4.2h4.2c0.3,1.3,0.5,2.6,0.7,3.9c0.2,1.3,0.4,2.6,0.6,3.9h0.5c1.2-0.3,2.4-0.6,3.6-0.7
			c1.2-0.2,2.5-0.2,3.9-0.2l1.2-8.5L117,5.1h4.2l0.1,1.9l-1.2,7.2c1.6,0.1,3.1,0.3,4.5,0.6c1.4,0.3,2.6,0.9,3.8,1.6
			c1.3,1.1,2.2,2.2,2.6,3.5s0.6,2.7,0.4,4.2c-0.3,1.4-0.7,2.7-1.2,4s-1.3,2.5-2.3,3.7H123.8z M107.8,27.2c1.9-0.9,3.4-2.1,4.4-3.7
			c0.8-1.4,1.5-2.7,2-4.1c0.5-1.4,1-2.8,1.4-4.2h-0.8c-2.2,0.4-4.3,1.1-6.3,1.9l-0.1,0.8l1.8,6.6H106l-1.5-5.1h-0.3l-0.4,0.1
			l-0.2,0.3c-1.2,0.8-2.2,1.8-3,2.8c-0.5,0.8-0.8,1.5-0.8,2.4c0.2,0.7,0.7,1.3,1.4,1.8c1.1,0.7,2.3,1.1,3.6,1.3L107.8,27.2z"/>
    <path d="M155.1,13.9V13l0.5-0.2l1.4-1.8l0.5-0.2c1.3-1.6,2.3-3.3,3-5.3l-0.2-0.7l-2.5-0.8c-3.1,0.4-6,1.1-8.7,2.1
			c-2.8,1.1-5.8,1.6-9,1.5V6.8c2.4-0.9,4.8-1.7,7.3-2.4c2.5-0.7,5-1.1,7.6-1.3h7.3l2.5,1c0.5,0.7,0.6,1.5,0.5,2.5l-1,2.2L163.7,9
			l-1.2,2.1l-2.7,2.8H155.1z M145.3,35.9c-1.2-0.2-2.2-0.7-3.1-1.4l-0.7-0.7c-1-2-1.5-4.3-1.4-6.9l0.2-0.7h4.7v0.8l-0.2,2
			c0.1,1.6,0.6,3.1,1.5,4.4c1.1,1,2.5,1.5,4.2,1.3c3.2-0.4,6.2-1.2,9.1-2.2c2.9-1.1,6-1.6,9.2-1.5V32c-2.4,0.9-4.8,1.7-7.4,2.4
			c-2.5,0.7-5.1,1.2-7.7,1.5H145.3z M168.4,16.1v-2.7l-0.2-0.2v-12h4.7v12.3l0.2,2.2l-0.2,0.3H168.4z M175.1,17.9v-0.2l-0.7-5.6V4.7
			h4.7v7.8l0.5,5.4H175.1z"/>
    <path d="M184.1,28.3l-0.6-0.4c-0.7-1.4-1.1-2.9-1.1-4.6c-0.1-1.7-0.1-3.3-0.1-5l0.5-5.2h3.1v1.1c-0.2,1.3-0.3,2.6-0.3,3.9
			s-0.1,2.6-0.1,3.9c0.1,1.7,0.4,3.2,0.9,4.7l0.4,0.1c1.1-0.8,2.2-1.6,3.3-2.3s2.4-0.9,3.8-0.5v0.7c-1.4,1.3-2.9,2.3-4.5,3.1
			S186.1,28.7,184.1,28.3z M198.8,35.1c-1-0.2-1.9-0.7-2.6-1.5c-0.6-0.8-0.8-1.9-0.7-3.1l1-2.2l1.8-1.6c1.6-0.9,3.3-1.4,5.2-1.4
			v-3.7l-0.2-8.6h-0.4c-1,0.4-2.1,0.6-3.3,0.6s-2.4,0.1-3.6,0.1l-0.1-0.8c1.3,0,2.5-0.2,3.7-0.5c1.2-0.3,2.4-0.6,3.6-0.8V8.6
			l-0.4-5.2h3.2l0.4,7.2h0.2c1.4-0.3,2.5-1,3.5-2.2c1-0.4,2.1-0.5,3.3-0.4v0.7c-0.4,0.8-0.9,1.4-1.6,1.8c-1.7,0.7-3.5,1.3-5.4,1.7
			v0.3l0.2,4.4v6.6l0.1,1.9c1.2,0,2.3,0.2,3.3,0.6c1,0.4,1.9,1,2.8,1.9l0.1,0.9h-3.2l-1.9-1.8l-1.3-0.4c0,1.3-0.1,2.5-0.2,3.7
			c-0.1,1.2-0.4,2.3-0.9,3.3l-1.4,1.4l-0.5,0.2H198.8z M201.5,33.8c0.5-0.4,0.9-0.9,1.2-1.5c0.5-1.8,0.8-3.8,0.8-5.9h-0.2
			c-1.6,0.4-2.9,1.4-4,3.1l-0.6,2.2c0.4,1.1,1,1.9,1.9,2.4l0.6,0.1L201.5,33.8z"/>
    <path d="M237.3,29.9l-1.2-0.5l-0.6-0.5c-0.9-0.9-1.5-1.9-1.8-2.9s-0.6-2.1-0.9-3.2h-0.4l-0.3,0.4l-3.3,2.4l-1.4,1l-1.7,0.9
			c-1.1,1-2.3,1.5-3.7,1.6s-2.7,0.1-4.1,0.1l-0.8-0.2c-1-1.6-1.4-3.3-1.1-5.3c0.2-2.5,0.5-5,0.9-7.5c0.4-2.5,1-4.9,1.8-7.2h4v0.7
			c-0.8,2.6-1.4,5.3-1.8,8.1s-0.7,5.5-0.8,8.4l0.3,1.4l1.2-0.6l1.5-1.1l2.1-1.6l2.4-1.7c1-0.8,2.2-1.3,3.6-1.4s2.8-0.1,4.3-0.1
			l1.2,1.1c0.3,1.1,0.6,2.3,1,3.4s1.1,2.2,2.2,3.1l0.9,0.1c4.9-2.1,8.7-4.4,11.6-6.8h4.2v0.6c-3.1,2.1-5.5,3.6-7.2,4.7
			s-3.6,1.8-5.6,2.2S239.7,30.1,237.3,29.9z"/>
</g>
</svg>
