<?xml version="1.0" encoding="utf-8"?>
<!-- Generator: Adobe Illustrator 25.0.0, SVG Export Plug-In . SVG Version: 6.00 Build 0)  -->
<svg version="1.1" id="result" xmlns="http://www.w3.org/2000/svg" xmlns:xlink="http://www.w3.org/1999/xlink" x="0px"
	 y="0px" viewBox="0 0 114.6 34.8" style="enable-background:new 0 0 114.6 34.8;" xml:space="preserve">
<g>
	<path d="M25,33.9c-2.5-1.5-5-3-7.4-4.5c-2.4-1.6-4.9-3.1-7.4-4.5l-0.4,8.8H5.6v-1.9c0.1-4.2,0.4-8.3,0.9-12.5
		C6.9,15,7.6,10.9,8.3,6.8h4.4v0.8c-0.5,2.5-0.9,5-1.3,7.5c-0.3,2.5-0.6,5.1-0.8,7.7h0.3c1.8-1.1,3.6-2.3,5.3-3.4
		c1.8-1.1,3.5-2.3,5.2-3.5l0.2-0.5l1.7-1.7h0.3c1.7-1.9,2.5-4.1,2.5-6.7l-1.4-2.5c-1.9-1.6-4.1-2.3-6.7-2.2
		c-2.3,0.5-4.5,1.2-6.6,2.1c-2.1,0.9-4.1,2.1-6,3.5L5.3,8.5H0.8V7.6c1.1-1,2.4-2,3.9-2.8c1.7-0.8,3.3-1.6,5-2.1
		c1.7-0.6,3.5-1,5.3-1.3h8.4c2,0.2,3.8,1,5.3,2.4l0.6,0.6c0.9,1.5,1.3,3.1,1.1,5c-0.4,1.5-1.1,2.8-1.9,4.1l-1.1,1.2h-0.3L27,15.2
		l-0.5,0.1l-0.1,0.5l-0.8,0.8l-1.4,0.8l-0.3,0.5c-1.3,1-2.7,2-4.2,2.9s-2.9,1.8-4.4,2.7L15,24c2.3,1.6,4.6,3.1,7,4.6
		c2.4,1.5,4.8,3,7.2,4.5v0.8H25z"/>
	<path d="M38.5,30.7c-1.2-0.1-2.3-0.4-3.2-1l-0.2-0.4l-0.4-0.1c-1.2-1.6-1.6-3.5-1.2-5.7c0.3-1.9,1.1-3.6,2.4-5.1l2.4-1.8
		c1-0.4,2.1-0.6,3.3-0.6s2.4,0,3.6,0c1.4,0.1,2.6,0.7,3.6,1.8c0.4,0.7,0.6,1.4,0.6,2.2L48.6,22l-0.4,0.1L48,22.6l-0.4,0.1l-0.2,0.4
		c-1.4,1.2-3,2-4.8,2.4C40.9,25.9,39,26,37,25.8v0.5l0.9,2.1l0.5,0.2l0.1,0.4l2.3,0.7c1.9-0.3,4.2-1.5,6.9-3.6l4,0.4v0.5l-0.1,0.3
		c-1.9,1.2-4,2.2-6.1,2.8C43.3,30.8,41,31,38.5,30.7z M41,24.2c1.2-0.4,2.3-1,3.3-1.9l1.5-1.9l0.2-0.9l-1-1.6
		c-0.7-0.6-1.4-0.9-2.3-1c-1.2,0.3-2.3,1.1-3.2,2.1l-0.5,0.4c-1.2,1.7-1.8,3.6-2,5.7h1.6L41,24.2z"/>
	<path d="M56.6,30.6l-2.3-0.4v-0.6H58l2.6,0.3c1.2-0.2,2.3-0.7,3.3-1.5c0.4-0.4,0.6-0.9,0.6-1.5l-0.3-0.7l-0.4-0.3
		c-1.4-1.1-3-1.8-4.8-2.1c-1.8-0.3-3.5-0.8-5.2-1.4c-0.4-0.5-0.6-1.1-0.6-1.8c0.2-0.9,0.7-1.7,1.5-2.5l0.5-0.5
		c1.6-1.1,3.3-1.8,5.2-2.3h5.2l1.2,0.7c0.4,0.5,0.5,1.1,0.4,1.7h-3.4l-0.4-1.1l-0.7-0.4c-1.7,0.5-3.2,1.4-4.6,2.6L57,20l-0.2,1
		l1.1,1c1.7,0.5,3.4,0.9,5.1,1.2c1.7,0.3,3.2,1,4.6,2.2c0.4,0.7,0.6,1.4,0.5,2.3L67.4,29l-0.6,0.3l-0.4,0.5c-1,0.5-2.1,0.8-3.4,0.9
		H56.6z"/>
	<path d="M72.5,30.5c-0.5-0.2-0.9-0.6-1.1-1.1c-0.4-1.4-0.5-3-0.4-4.6c0.2-1.8,0.4-3.4,0.7-4.8c0.3-1.4,0.8-2.9,1.4-4.5h0.2v-0.2
		h3.4v0.6c-0.8,1.9-1.4,3.8-1.7,5.6c-0.3,1.8-0.5,3.8-0.5,6.1L75,29h0.5l1.9-1.5l0.9-0.5l0.1-0.4l0.7-0.7h0.3l0.4-0.8
		c0.8-0.7,1.5-1.5,2.1-2.4c0.6-0.9,1.2-1.8,1.8-2.7l1.8-4.3h3.4l0.1,0.6c-0.5,1.7-0.8,3.3-0.9,4.9c-0.1,1.6-0.2,3.4-0.2,5.2
		c0.3,1.3,0.5,2.6,0.7,3.9h-3.4c-0.7-1.7-1-3.6-0.9-5.6h-0.2l-0.4,0.5h-0.2L83.1,26l-0.7,0.7h-0.3l-0.2,0.5l-0.4,0.1l-0.1,0.4
		l-0.5,0.5l-1.6,1v0.3c-0.9,0.7-2,1-3.2,1S73.6,30.5,72.5,30.5z"/>
	<path d="M92.7,30.6l-0.9-0.8c-0.2-1.7-0.3-3.4-0.2-5.1c0.4-3.9,0.9-7.7,1.6-11.2c0.6-3.5,1.3-6.9,2.1-10.1h3.2l0.1,1.1
		c-0.8,3.5-1.5,7.1-2.2,10.9c-0.7,3.8-1.2,7.8-1.4,11.9l0.5,2l3,0.1V30C96.7,30.5,94.8,30.7,92.7,30.6z"/>
	<path d="M105.4,30.7v-0.5l-0.1-3.6l0.7-9.4h-4.4v-0.6l4.4-0.4c0.3-1.2,0.4-2.7,0.5-4.4c0.1-1.7,0.2-3.1,0.4-4.4h3.4v1.1l-0.5,7.3
		h3.9v0.6l-4,0.4c-0.2,2.3-0.5,4.6-0.7,6.9c-0.2,2.3-0.3,4.7-0.2,7H105.4z"/>
</g>
</svg>
