<?xml version="1.0" encoding="utf-8"?>
<!-- Generator: Adobe Illustrator 25.0.0, SVG Export Plug-In . SVG Version: 6.00 Build 0)  -->
<svg version="1.1" id="question" xmlns="http://www.w3.org/2000/svg" xmlns:xlink="http://www.w3.org/1999/xlink" x="0px"
	 y="0px" viewBox="0 0 276.8 49.1" style="enable-background:new 0 0 276.8 49.1;" xml:space="preserve">
<g>
	<path d="M1.6,29l-0.6-0.1L0.8,27c0.7-1.5,1.6-2.9,2.8-4.2l1.6-1.4L18,8.6l0.4-0.5c1-1.1,2.2-1.9,3.5-2.4c1.3-0.5,2.8-0.6,4.3-0.3
		v0.6L24.1,8l-1.6,0.9L20.5,11L20,11.4L7.3,24c-0.9,1.3-1.6,2.6-2.2,4.1h2.8v0.8L1.6,29z M22.2,45.5v-0.8l2.1-3h0.3
		c0.7-1.4,1.6-2.7,2.5-4c0.9-1.3,1.5-2.7,1.7-4.3l-0.1-0.6l-2.3-0.6c-2.3,0.4-4.6,0.9-6.8,1.5c-2.2,0.6-4.7,0.8-7.3,0.6v-0.8
		c1.9-0.3,3.7-0.7,5.6-1.1c1.8-0.4,3.7-0.8,5.6-1.1h7.4l2,0.9c0.5,0.8,0.7,1.8,0.5,2.8c-0.9,2.1-2.1,4.1-3.5,6.1l-3.1,4.4H22.2z
		 M26.6,26.3v-0.6l0.8-1.1l-1.9-0.1c-1.8,0.3-3.6,0.5-5.3,0.8c-1.8,0.2-3.6,0.3-5.5,0.2v-0.8l9.4-1.3h6.6l1.1,0.5l0.1,1.3l-0.1,0.4
		h-0.3L31.3,26C29.9,26.3,28.3,26.4,26.6,26.3z M43.5,28.4l-0.3-0.1l-0.4-0.9l-0.5-0.2l-7.5-7.2l-9.9-8.6V11l-1.4-0.8l-0.1-1h4.2
		l1.6,1.1l7.7,6.6l0.9,0.8l1.3,1.1l5.6,5.5l1.4,1.4l1.8,1.9v0.8H43.5z"/>
	<path d="M71,44.5v-1l1.1-4.1h-0.5c-2.8,0.6-5.6,1.2-8.3,1.9c-2.8,0.6-5.7,0.9-8.9,0.8v0.6H50c-0.2-2-0.4-4-0.6-6
		c-0.2-2-0.4-4-0.5-6V16.9l0.3-3.3h4.4v1l-0.3,4.2h0.3l0.3-0.4c2.2-1.5,4.5-2.8,6.9-3.9c2.4-1.1,4.9-1.9,7.5-2.3h6.6
		c1.3,0.2,2.5,0.7,3.6,1.6c0.9,1.1,1.5,2.3,1.7,3.6c0.2,1.3,0.3,2.7,0.3,4.2c-0.4,4-1.1,7.8-2.1,11.6c-1,3.8-2,7.6-3.1,11.5H71z
		 M72.6,38.4v-0.3c0.8-2.9,1.6-5.9,2.3-9s1.1-6.2,1.2-9.5c-0.2-1.7-0.7-3.2-1.4-4.5l-0.5-0.3c-0.9-1-2.1-1.5-3.5-1.4
		c-3.1,0.5-6,1.7-8.6,3.6c-2.6,1.9-5.6,2.8-8.9,2.8l-0.1,6.4l0.1,3.3h0.4c3.3-0.9,6.6-1.8,10-2.6c3.4-0.8,6.9-1.2,10.4-1.2v1
		c-3.5,0.3-7,1-10.4,2c-3.4,1.1-6.9,1.6-10.5,1.7v0.4l0.9,10.5h0.3c3.1-0.5,6-1.1,9-1.9C66.4,38.7,69.4,38.4,72.6,38.4z"/>
	<path d="M107.2,38v-0.5l2.3-1.8l1.8-1.8h0.2c0.8-1.2,1.5-2.4,2-3.6c0.6-1.2,0.8-2.6,0.8-4.1c-0.2-1.5-0.8-2.7-1.7-3.9
		c-0.9-0.8-2-1.4-3.1-1.8c-1.1-0.4-2.3-0.6-3.5-0.6c-1.5,0.2-2.9,0.6-4.2,1.2c-1.4,0.6-2.7,1.3-3.9,2.1l-0.1,0.2l-1.2,1l-1.1,1.1
		L94.1,27c-0.7,1.1-1.1,2.4-1.1,3.8l0.9,1.3l0.6,0.2l2.7-1.7l0.1-0.2l1.5-1.4h0.2l1.1-1.5c0.9-1.1,1.8-2.3,2.5-3.5l0.6-1.6h3.1v0.5
		c-0.7,1.6-1.5,3.2-2.6,4.6l-0.3,0.1l-0.6,1.1l-1.1,1.1h-0.2l-0.2,0.4l-0.3,0.1l-0.1,0.3c-1.1,1.2-2.4,2-3.8,2.4
		c-1.5,0.4-3,0.6-4.7,0.3l-1.3-0.4l-0.9-1.1L90,29.4c0.1-1,0.4-1.8,0.9-2.6s1-1.5,1.7-2.2l2.2-2c1.4-1,2.8-1.7,4.3-2.3
		c1.5-0.6,3.1-1,4.8-1.2h5.6c1,0.2,2,0.4,2.9,0.7c0.9,0.3,1.8,0.8,2.6,1.4c0.7,0.6,1.2,1.3,1.6,2.1c0.7,1.3,0.9,2.7,0.8,4.3
		c-0.1,1.4-0.5,2.7-1.1,3.9c-0.6,1.2-1.4,2.3-2.3,3.3c-1.1,1.2-2.4,2.2-3.8,3.2H107.2z"/>
	<path d="M126.1,23.7v-0.8c1.5-3,2.9-6.1,4.2-9.1c1.4-3,2.8-6.1,4.2-9.1l4.4-0.1v0.9l-3.5,7.4h0.6c3-0.7,6.1-1.3,9.1-1.9
		c3-0.5,6.2-0.7,9.6-0.6v0.8c-3.5,0.2-6.8,0.7-10,1.5c-3.2,0.8-6.5,1.2-10,1.4l-4.2,9.6L126.1,23.7z M131.5,45.1v-0.8h0.3l0.8-1.4
		l1.3-1.4h0.3l0.8-1.4l1.4-1.8l1-0.9V37c-1.8-0.7-3.5-1.6-5.2-2.7l-0.1-0.9h4.2c0.9,0.7,2,1.2,3.1,1.6l1.8-2.2l1.2-1.4h0.3l0.9-1.4
		l4.4-0.1v0.8l-0.8,1.1l-1.1,1.3h-0.3l-0.6,1.1l-0.4,0.1l-0.8,1.4l-0.5,0.1l-0.5,1.3c2.2,0.5,4.2,1.4,6.1,2.8l0.2,1H145
		c-1.1-1-2.4-1.7-3.9-1.9l-1,1.3l-2.5,3h-0.3l-1.4,2H131.5z M162.5,46.2c-1.8-0.5-3.5-1.3-5.1-2.3c-1.2-0.9-2.2-2.1-3-3.5
		c-0.9-2-1.3-4.2-1.1-6.7c0.1-1.5,0.4-2.9,0.8-4.3c0.4-1.4,0.7-2.9,0.8-4.5l-0.6-0.8l-0.9-0.1c-3.2,0.5-6.4,1.4-9.4,2.6
		c-3,1.2-6.3,1.8-9.7,1.8v-0.8c2.5-0.9,5.1-1.8,7.7-2.7c2.6-0.8,5.3-1.5,8.2-1.9h7.7c0.7,0.1,1.2,0.5,1.6,1.3V27
		c-0.4,1.5-0.8,2.9-1.1,4.4c-0.3,1.5-0.5,3-0.5,4.7c0.2,2.4,1.2,4.5,3.1,6.3l0.9,0.6l0.6,0.6l4.2,1.8l0.1,0.9H162.5z M135.4,20.2
		v-0.8c2.9-0.8,6-1.6,9.1-2.1c3.1-0.6,6.3-0.8,9.5-0.7v0.8c-3.1,0.2-6.2,0.8-9.2,1.6S138.7,20.2,135.4,20.2z"/>
	<path d="M163.8,27.6V27h0.3l0.1-0.4l1.1-1l5.6-4.8l6.1-4.8l3.2-2.7c1.3-0.5,2.8-0.7,4.4-0.5v0.6l-4,2.9l-11.8,9.8l-1.5,1.4H163.8z
		 M185.6,41.5v-0.6c1.1-1.6,2-3.3,2.8-5s1.1-3.6,1.1-5.6c-0.2-1-0.6-1.9-1.4-2.6c-1.1-0.8-2.3-1.2-3.6-1.2c-1.9,0.3-3.8,0.9-5.5,1.6
		s-3.7,1-5.9,0.9v-0.6c1.4-0.6,2.9-1.1,4.4-1.6c1.5-0.5,3.1-0.8,4.6-1h5.6c1.4,0.1,2.6,0.5,3.6,1.3l0.5,0.5c1,1.4,1.4,3.1,1.1,5
		c-0.2,1.7-0.7,3.3-1.4,4.8c-0.7,1.5-1.5,3-2.4,4.4H185.6z M174.3,40.1v-0.9l3.2-9h3.5V31l-3.2,9L174.3,40.1z M198.3,28l-4-3.2
		l-4.4-3.5c-1.2-0.9-2.5-1.8-3.7-2.6c-1.2-0.8-2.5-1.5-3.8-2v-0.6h3.6c1.3,0.6,2.6,1.3,3.8,2.1c1.2,0.8,2.4,1.7,3.7,2.5l3,2.4
		l5.2,4.1l0.1,0.8H198.3z"/>
	<path d="M206.2,34.3l-0.6-0.3c-0.7-1.2-1.1-2.4-1.2-3.8c-0.1-1.4-0.1-2.8-0.1-4.2l0.5-4.4h3.1v0.9c-0.2,1.1-0.3,2.2-0.3,3.3
		c0,1.1-0.1,2.2-0.1,3.3c0.1,1.4,0.4,2.7,0.9,3.9l0.4,0.1c1.1-0.7,2.2-1.4,3.4-2c1.2-0.6,2.5-0.8,4-0.5v0.6c-1.5,1.1-3,2-4.6,2.6
		C210,34.5,208.2,34.6,206.2,34.3z M221.3,40c-1-0.2-1.9-0.6-2.7-1.3c-0.6-0.7-0.9-1.6-0.7-2.6l1-1.9l1.8-1.4
		c1.6-0.8,3.4-1.2,5.3-1.2v-3.1l-0.3-7.2h-0.4c-1.1,0.3-2.2,0.5-3.4,0.5c-1.2,0-2.4,0.1-3.6,0.1l-0.1-0.7c1.3,0,2.6-0.1,3.8-0.4
		c1.2-0.3,2.4-0.5,3.6-0.6v-2.5l-0.4-4.4h3.3l0.4,6h0.2c1.4-0.2,2.6-0.8,3.6-1.8c1-0.3,2.1-0.4,3.4-0.4v0.6
		c-0.4,0.7-0.9,1.2-1.6,1.5c-1.8,0.6-3.6,1.1-5.6,1.4v0.2l0.2,3.7v5.6l0.1,1.6c1.3,0,2.4,0.2,3.4,0.5c1,0.3,2,0.9,2.9,1.6l0.1,0.8
		h-3.3l-2-1.5l-1.3-0.3c0,1.1-0.1,2.1-0.2,3.1c-0.1,1-0.4,1.9-0.9,2.8l-1.5,1.2l-0.5,0.1H221.3z M224,39c0.5-0.3,1-0.7,1.3-1.3
		c0.6-1.5,0.8-3.2,0.8-5h-0.3c-1.6,0.3-3,1.2-4.2,2.6l-0.6,1.8c0.4,0.9,1.1,1.6,2,2l0.6,0.1L224,39z"/>
	<path d="M252.6,46.2v-1.4l0.6-4.7h4.4v1.2l-0.6,4.9H252.6z M255,34.5v-0.9c0.4-1.7,0.8-3.4,1.1-5.2c0.3-1.8,0.9-3.4,1.9-4.8
		l1.4-0.8l0.1-0.4c1.7-0.9,3.3-1.8,5-2.5c1.7-0.7,3.3-1.7,4.9-2.8l1.1-1.3l0.2-0.8l-1-1.6l-0.3-0.1l-1.4-1.3v-0.3
		c-2.4-1.5-4.9-2.8-7.4-3.9c-2.5-1.1-5.1-2.1-7.7-2.9l-0.1-1.1h4.5l0.6,0.6c2.5,0.7,4.9,1.6,7.3,2.7c2.3,1.1,4.6,2.3,6.8,3.7
		l0.1,0.5l1.4,0.8L274,13l0.6,0.5l0.3,2.3l-0.5,0.9h-0.3l-0.8,1.1c-1.8,1.2-3.6,2.3-5.5,3.1c-1.9,0.8-3.8,2-5.5,3.3
		c-1.1,1.4-1.7,3-2,4.8c-0.3,1.8-0.6,3.6-1,5.3H255z"/>
</g>
</svg>
