<?xml version="1.0" encoding="utf-8"?>
<!-- Generator: Adobe Illustrator 25.0.0, SVG Export Plug-In . SVG Version: 6.00 Build 0)  -->
<svg version="1.1" id="start" xmlns="http://www.w3.org/2000/svg" xmlns:xlink="http://www.w3.org/1999/xlink" x="0px"
	 y="0px" viewBox="0 0 63.1 22.2" style="enable-background:new 0 0 63.1 22.2;" xml:space="preserve">
<g>
	<path class="st0" d="M7.2,20C6,20,5,19.8,3.9,19.4c-1-0.3-2-0.7-3-1.2l-0.1-0.6h2.5c0.9,0.5,1.8,0.9,2.8,1.2c1,0.3,2,0.5,3.1,0.6
		c1-0.2,2-0.6,2.8-1.4c0.6-0.7,0.9-1.4,1-2.4c-0.2-1.2-0.8-2.2-1.8-3.1l-0.3-0.4c-1.4-1-2.9-1.7-4.5-2.1C4.8,9.7,3.2,9.1,1.7,8.3
		C1.3,7.8,1.2,7.1,1.3,6.4l0.8-1.4l0.3-0.1l0.5-0.7l0.6-0.5c1-0.7,2-1.2,3.1-1.7C7.7,1.4,8.9,1.1,10.1,1h3.7l1.3,0.4l0.3,0.3v0.6
		h-2.5c-0.4-0.5-0.9-0.7-1.5-0.6c-0.9,0.2-1.8,0.5-2.7,0.9S7,3.4,6.2,3.8L6,4.1C5.1,4.7,4.4,5.5,3.9,6.5L3.8,7.2l0.3,0.5
		c1.6,0.8,3.2,1.5,4.9,2c1.7,0.5,3.3,1.3,4.8,2.5l0.5,0.5c1,1.1,1.4,2.5,1.2,4.1c-0.2,0.6-0.5,1.2-0.9,1.7l-0.7,0.6
		C13,19.7,12,20,10.9,20H7.2z"/>
	<path class="st0" d="M19.7,20.3v-0.4l-0.1-2.6l0.5-6.8H17V10l3.2-0.3c0.2-0.9,0.3-2,0.4-3.2c0-1.2,0.1-2.3,0.3-3.2h2.5v0.8
		l-0.4,5.3h2.8v0.5l-2.9,0.3c-0.2,1.6-0.3,3.3-0.5,5c-0.2,1.7-0.2,3.4-0.1,5.1H19.7z"/>
	<path class="st0" d="M36.7,20.9l-0.2-0.1c-0.8-1.1-1.2-2.3-1.2-3.7h-0.2l-0.2,0.3h-0.2l-0.3,0.5l-2.2,1.9c-0.7,0.5-1.4,0.7-2.4,0.7
		s-1.8,0-2.7,0c-0.4-0.2-0.7-0.4-0.8-0.8c-0.2-0.8-0.3-1.7-0.2-2.6c0.2-1,0.5-1.9,0.9-2.8c0.4-0.9,0.9-1.8,1.5-2.6l0.3-0.1l0.7-0.9
		l0.3-0.1l0.1-0.3c0.8-0.7,1.7-1.1,2.7-1.3c1-0.2,2-0.2,3.1-0.1L37,9.5c0.4,0.5,0.5,0.9,0.5,1.5h1.6v0.7c-0.5,0.8-0.9,1.8-1,2.8
		c-0.1,1-0.2,2.1-0.2,3.2c0.1,0.9,0.5,1.8,1,2.5l0.3,0.1v0.6H36.7z M29.4,19.3l1.7-1.3h0.2l0.7-0.9l0.6-0.7c0.8-0.8,1.5-1.7,2.2-2.6
		h0.2c0.5-0.6,0.8-1.3,1-2h-1c0.1-0.7-0.1-1.3-0.6-1.8L34,9.9c-0.8,0.4-1.6,1-2.2,1.7c-0.6,0.7-1.2,1.4-1.6,2.1
		c-0.4,0.7-0.7,1.4-0.9,2.2c-0.3,0.8-0.4,1.6-0.5,2.4l0.4,1.1h0.3L29.4,19.3z"/>
	<path class="st0" d="M40.4,20.3v-1.6c0.2-1.8,0.5-3.5,0.8-5.3c0.3-1.8,0.7-3.5,1.1-5.2h2.4v0.6L44.1,12h0.2l1.4-1.4l1-0.7
		C47.2,9.3,47.8,9,48.7,9c0.8,0,1.6,0,2.4,0l0.4,0.3l0.1,1.6l-0.1,2.3h-2.5v-2.3l0.1-0.4h-0.2L48,11.1c-0.8,1-1.7,2.1-2.8,3.5
		c-0.5,0.9-0.9,1.8-1.3,2.8c-0.4,0.9-0.6,1.9-0.8,3L40.4,20.3z"/>
	<path class="st0" d="M55.6,20.3v-0.4l-0.1-2.6l0.5-6.8h-3.2V10L56,9.8c0.2-0.9,0.3-2,0.4-3.2c0-1.2,0.1-2.3,0.3-3.2h2.5v0.8
		l-0.4,5.3h2.8v0.5l-2.9,0.3c-0.2,1.6-0.3,3.3-0.5,5c-0.2,1.7-0.2,3.4-0.1,5.1H55.6z"/>
</g>
</svg>
